<?xml version="1.0" standalone="no"?>
<!DOCTYPE svg PUBLIC "-//W3C//DTD SVG 20010904//EN"
 "http://www.w3.org/TR/2001/REC-SVG-20010904/DTD/svg10.dtd">
<svg version="1.0" xmlns="http://www.w3.org/2000/svg"
 width="800.000000pt" height="600.000000pt" viewBox="0 0 800.000000 600.000000"
 preserveAspectRatio="xMidYMid meet">

<g transform="translate(0.000000,600.000000) scale(0.100000,-0.100000)"
fill="#000000" stroke="none">
<path d="M3840 3989 c-106 -33 -151 -136 -98 -230 23 -41 60 -69 146 -113 51
-26 66 -51 38 -62 -22 -8 -56 14 -56 36 0 18 -7 20 -75 20 l-75 0 0 -35 c0
-48 22 -88 67 -122 33 -26 44 -28 124 -28 82 0 89 2 126 31 71 58 81 151 23
218 -17 18 -61 50 -99 70 -77 40 -100 61 -84 77 19 19 57 6 63 -21 5 -23 11
-25 74 -28 38 -2 73 1 78 6 12 12 -6 90 -29 121 -41 53 -148 82 -223 60z m167
-35 c40 -30 73 -82 73 -115 0 -29 -1 -29 -58 -29 -55 0 -58 2 -69 30 -21 55
-98 48 -91 -8 2 -20 20 -34 83 -69 110 -61 127 -79 132 -145 8 -99 -51 -153
-168 -152 -100 0 -164 47 -171 124 l-3 35 57 3 c53 3 57 1 70 -25 11 -22 20
-28 47 -28 41 0 62 25 42 49 -8 9 -44 32 -81 52 -37 19 -80 48 -95 64 -67 70
-42 184 50 226 44 21 147 13 182 -12z"/>
<path d="M2965 3978 c-32 -97 -134 -513 -127 -520 5 -5 40 -8 78 -6 68 3 69 3
79 36 9 31 11 32 62 32 51 0 53 -1 61 -32 l8 -33 74 -3 c40 -2 77 1 81 5 4 4
-24 125 -62 268 -38 143 -69 261 -69 263 0 1 -41 2 -90 2 -64 0 -92 -4 -95
-12z m169 -7 c4 -5 33 -112 66 -238 33 -125 63 -236 66 -245 5 -16 -2 -18 -60
-18 -65 0 -65 0 -74 33 -8 32 -9 32 -75 35 l-66 3 -7 -36 -6 -35 -64 0 c-35 0
-64 3 -64 6 0 4 29 116 65 251 36 134 65 246 65 249 0 8 149 4 154 -5z"/>
<path d="M3045 3798 c-12 -40 -32 -154 -28 -160 6 -10 83 -10 83 0 0 4 -7 44
-16 90 -15 76 -29 100 -39 70z m30 -105 c7 -42 6 -43 -20 -43 -20 0 -25 4 -21
18 3 9 8 34 12 56 8 45 18 34 29 -31z"/>
<path d="M3312 3723 l3 -268 69 -3 c49 -2 72 1 77 10 5 7 9 54 10 103 l1 90
31 -90 c18 -50 36 -96 40 -103 10 -14 143 -17 152 -3 3 5 -12 56 -33 113 l-39
103 28 27 c50 50 56 158 12 224 -33 51 -79 64 -223 64 l-130 0 2 -267z m253
247 c108 -25 150 -168 75 -254 -17 -19 -30 -38 -30 -44 0 -6 16 -52 35 -102
19 -50 35 -94 35 -96 0 -2 -29 -4 -64 -4 l-65 0 -32 100 c-26 77 -37 100 -51
100 -16 0 -18 -11 -18 -100 l0 -100 -65 0 -65 0 0 248 c0 137 3 252 7 255 10
10 192 8 238 -3z"/>
<path d="M3450 3815 l0 -55 33 0 c43 0 70 20 70 53 0 40 -20 57 -64 57 l-39 0
0 -55z m75 32 c13 -10 16 -21 11 -40 -5 -22 -12 -27 -36 -27 -28 0 -30 2 -30
40 0 32 4 40 18 40 10 0 26 -6 37 -13z"/>
<path d="M4127 3983 c-10 -9 -8 -506 2 -521 5 -9 28 -12 77 -10 l69 3 5 100 5
100 30 0 30 0 5 -100 5 -100 72 -3 c68 -3 73 -2 78 20 3 13 4 133 3 268 l-3
245 -77 3 -78 3 0 -101 0 -100 -35 0 -35 0 0 100 0 100 -73 0 c-41 0 -77 -3
-80 -7z m141 -105 l3 -98 44 0 44 0 3 98 3 97 63 3 62 3 0 -256 0 -255 -65 0
-65 0 0 100 0 100 -45 0 -45 0 0 -100 0 -100 -65 0 -65 0 0 255 0 256 63 -3
62 -3 3 -97z"/>
<path d="M4537 3983 c-10 -9 -8 -506 2 -521 5 -9 28 -12 77 -10 l69 3 3 268 2
267 -73 0 c-41 0 -77 -3 -80 -7z m141 -260 l2 -253 -65 0 -65 0 0 255 0 256
63 -3 62 -3 3 -252z"/>
<path d="M4841 3953 c-105 -393 -129 -488 -125 -495 8 -13 139 -9 152 4 7 7
12 22 12 35 0 21 4 23 60 23 56 0 60 -2 60 -23 0 -13 5 -28 12 -35 17 -17 147
-16 153 1 2 6 -26 127 -64 267 l-68 255 -91 3 -91 3 -10 -38z m179 23 c0 -2
29 -115 65 -250 36 -135 65 -248 65 -251 0 -3 -29 -5 -64 -5 -63 0 -63 0 -72
33 -10 32 -10 32 -74 32 -64 0 -64 0 -74 -32 -9 -33 -9 -33 -73 -33 -57 0 -64
2 -59 18 3 9 31 114 62 232 31 118 60 225 65 237 8 21 15 23 84 23 41 0 75 -2
75 -4z"/>
<path d="M4925 3788 c-35 -157 -35 -158 15 -158 47 0 48 3 24 109 -16 72 -30
89 -39 49z m31 -89 l11 -49 -27 0 -27 0 10 55 c6 30 13 52 16 49 3 -3 11 -28
17 -55z"/>
<path d="M3392 2983 l3 -268 130 0 c113 0 135 3 165 21 80 47 105 145 55 218
l-24 36 21 35 c30 52 22 134 -17 175 -39 41 -79 50 -218 50 l-117 0 2 -267z
m242 247 c85 -19 128 -88 106 -170 -6 -22 -18 -44 -26 -47 -19 -7 -18 -23 5
-47 40 -43 45 -140 10 -182 -34 -41 -84 -54 -209 -54 l-120 0 0 248 c0 137 3
252 7 255 10 10 182 8 227 -3z"/>
<path d="M3530 3080 c0 -47 2 -50 26 -50 41 0 64 18 64 48 0 37 -17 52 -57 52
-33 0 -33 0 -33 -50z m64 27 c28 -21 13 -57 -25 -57 -25 0 -29 4 -29 28 0 44
20 54 54 29z"/>
<path d="M3530 2885 c0 -53 1 -55 28 -55 36 0 72 26 72 51 0 41 -19 59 -60 59
l-40 0 0 -55z m70 31 c6 -8 10 -25 8 -38 -2 -18 -10 -24 -35 -26 -31 -3 -33
-2 -33 31 0 18 3 37 7 40 11 12 40 8 53 -7z"/>
<path d="M3800 3043 c0 -197 2 -210 23 -247 62 -111 255 -116 327 -9 24 36 25
41 28 250 l3 214 -78 -3 -78 -3 -3 -189 c-3 -211 -12 -244 -56 -200 -13 13
-16 46 -16 205 l0 189 -75 0 -75 0 0 -207z m138 3 c1 -119 7 -194 13 -203 15
-18 54 -16 73 3 13 13 16 46 16 205 l0 189 60 0 60 0 0 -200 c0 -218 -4 -238
-56 -279 -98 -77 -252 -31 -283 84 -12 44 -15 377 -4 389 4 4 32 6 63 4 l55
-3 3 -189z"/>
<path d="M4207 3243 c-3 -4 22 -75 55 -158 58 -143 61 -155 67 -260 l6 -110
75 0 75 0 5 105 c5 101 8 111 68 254 34 82 62 155 62 162 0 11 -19 14 -80 14
l-80 0 -22 -75 c-12 -41 -24 -72 -27 -69 -3 2 -14 35 -26 72 l-21 67 -76 3
c-42 2 -78 -1 -81 -5z m170 -93 c14 -49 30 -90 34 -90 4 0 20 39 36 88 l28 87
63 3 c39 2 62 -1 62 -8 0 -5 -29 -83 -65 -172 -62 -154 -65 -167 -65 -245 l0
-83 -60 0 -60 0 0 88 c0 85 -2 93 -65 250 -36 89 -65 164 -65 167 0 3 29 5 65
5 l65 0 27 -90z"/>
<path d="M928 2312 c10 -7 13 -32 10 -96 l-3 -87 65 3 c56 3 65 6 69 23 3 19
3 19 -16 3 -11 -10 -34 -18 -51 -18 -31 0 -32 2 -32 40 0 38 2 40 29 40 16 0
32 -6 34 -12 3 -7 5 1 5 17 0 17 -2 24 -5 18 -2 -7 -18 -13 -34 -13 -29 0 -30
2 -27 38 3 35 5 37 37 35 18 -1 38 -7 43 -15 7 -9 8 -8 6 7 -3 17 -12 20 -73
23 -42 1 -65 -1 -57 -6z"/>
<path d="M1129 2311 c8 -5 28 -46 46 -92 18 -46 36 -84 40 -84 4 0 22 38 40
84 18 46 38 87 46 92 10 6 6 9 -14 9 -17 0 -26 -4 -22 -10 7 -11 -35 -140 -46
-140 -10 0 -51 129 -44 139 4 7 -6 11 -27 11 -23 0 -29 -3 -19 -9z"/>
<path d="M1368 2314 c8 -4 12 -32 12 -89 0 -57 -4 -85 -12 -88 -7 -3 20 -6 60
-6 66 -1 72 1 72 20 0 19 -1 19 -16 4 -10 -10 -29 -15 -48 -13 -28 3 -31 6
-34 42 l-3 38 35 -4 c22 -2 36 0 36 7 0 7 -14 9 -35 7 -34 -4 -35 -3 -35 31 0
44 26 56 71 33 28 -14 30 -14 27 2 -3 14 -16 17 -73 19 -39 1 -64 0 -57 -3z"/>
<path d="M1578 2309 c7 -8 12 -42 12 -90 0 -53 -4 -79 -12 -82 -7 -3 3 -5 22
-5 19 0 29 2 23 5 -8 2 -13 22 -13 44 0 53 22 51 56 -6 17 -31 33 -45 47 -45
18 0 19 2 5 13 -8 6 -25 26 -37 44 -21 31 -21 32 -1 38 27 9 37 52 17 72 -21
21 -139 32 -119 12z m102 -25 c21 -21 1 -48 -39 -52 -29 -3 -31 -1 -31 31 0
18 3 37 7 40 9 9 44 -2 63 -19z"/>
<path d="M1820 2263 c41 -57 53 -116 28 -126 -7 -3 3 -5 22 -5 19 0 29 2 23 5
-34 13 5 131 55 171 14 10 12 12 -11 12 -17 0 -25 -4 -22 -12 3 -7 -6 -30 -18
-52 l-24 -38 -25 43 c-19 31 -23 46 -15 51 7 4 -2 8 -20 8 l-32 0 39 -57z"/>
<path d="M2007 2313 c-4 -3 -7 -15 -7 -27 0 -18 1 -18 13 -4 6 9 21 18 32 20
18 3 20 -3 23 -76 2 -57 -1 -82 -10 -87 -8 -6 0 -9 22 -9 22 0 30 3 22 9 -9 5
-12 30 -10 87 3 77 4 79 28 76 13 -1 28 -8 32 -15 5 -8 8 -4 8 11 0 21 -4 22
-73 22 -41 0 -77 -3 -80 -7z"/>
<path d="M2228 2313 c8 -3 12 -31 12 -88 0 -57 -4 -85 -12 -88 -7 -3 3 -5 22
-5 19 0 29 2 23 5 -8 2 -13 22 -13 44 l0 39 55 0 55 0 0 -39 c0 -22 -5 -42
-12 -44 -7 -3 3 -5 22 -5 19 0 29 2 23 5 -9 3 -13 31 -13 88 0 57 4 85 13 88
6 3 -4 5 -23 5 -19 0 -29 -2 -22 -5 7 -2 12 -22 12 -44 l0 -39 -55 0 -55 0 0
39 c0 22 5 42 13 44 6 3 -4 5 -23 5 -19 0 -29 -2 -22 -5z"/>
<path d="M2478 2311 c10 -6 13 -31 10 -95 l-3 -86 25 1 c14 0 19 3 13 6 -17 6
-18 154 -1 171 9 9 4 12 -22 12 -23 0 -30 -3 -22 -9z"/>
<path d="M2608 2308 c17 -17 16 -165 0 -171 -7 -3 -4 -6 7 -6 18 -1 20 4 17
48 -7 99 -2 101 58 23 30 -39 58 -71 63 -72 4 0 7 40 7 89 0 62 4 91 13 94 6
3 -1 6 -18 6 -19 0 -25 -2 -17 -8 9 -5 12 -28 10 -76 l-3 -68 -59 76 c-32 43
-65 77 -74 77 -12 0 -13 -3 -4 -12z"/>
<path d="M2889 2305 c-55 -30 -62 -116 -11 -155 20 -16 37 -20 78 -18 l52 3 4
43 c3 41 2 42 -27 41 -16 0 -24 -3 -17 -6 18 -7 15 -60 -4 -67 -50 -19 -94 21
-94 85 0 70 59 102 107 57 19 -18 23 -19 23 -5 0 35 -64 48 -111 22z"/>
<path d="M3220 2263 c41 -57 53 -116 28 -126 -7 -3 3 -5 22 -5 19 0 29 2 23 5
-34 13 5 131 55 171 14 10 12 12 -11 12 -17 0 -25 -4 -22 -12 3 -7 -6 -30 -18
-52 l-24 -38 -25 43 c-19 31 -23 46 -15 51 7 4 -2 8 -20 8 l-32 0 39 -57z"/>
<path d="M3458 2305 c-38 -21 -53 -73 -34 -118 27 -65 97 -78 148 -27 27 27
30 36 25 72 -3 22 -14 49 -24 60 -26 25 -81 32 -115 13z m91 -19 c28 -30 31
-98 6 -126 -43 -48 -115 -4 -115 69 0 73 63 106 109 57z"/>
<path d="M3666 2312 c6 -4 13 -37 16 -74 5 -80 24 -108 74 -108 50 0 74 37 74
116 0 40 4 64 13 67 6 3 -1 6 -17 6 -23 1 -27 -2 -18 -11 17 -17 15 -109 -4
-136 -18 -26 -65 -30 -84 -7 -7 9 -10 40 -8 85 l3 70 -30 0 c-16 0 -25 -4 -19
-8z"/>
<path d="M4007 2312 c6 -4 26 -47 43 -95 18 -48 35 -85 39 -82 4 2 16 31 26
65 10 33 21 60 25 60 3 0 15 -27 26 -61 10 -33 23 -61 28 -62 5 -1 22 36 38
82 15 47 34 88 40 93 8 5 3 8 -15 8 -18 0 -26 -4 -21 -11 7 -12 -25 -129 -36
-129 -3 0 -16 32 -29 70 -12 39 -24 70 -26 70 -2 0 -14 -31 -26 -70 -13 -38
-26 -70 -29 -70 -11 0 -43 117 -36 129 5 7 -4 11 -26 11 -19 0 -28 -4 -21 -8z"/>
<path d="M4380 2235 c-18 -47 -40 -90 -49 -95 -13 -7 -10 -9 12 -10 16 0 26 4
22 10 -3 6 -3 19 0 30 9 29 80 28 95 0 6 -11 8 -25 5 -30 -4 -6 6 -10 22 -10
15 0 23 4 17 8 -6 4 -25 43 -43 87 -18 44 -36 84 -40 88 -4 4 -23 -31 -41 -78z
m60 -22 c0 -8 -12 -13 -30 -13 -35 0 -34 -3 -14 46 l17 39 13 -30 c7 -16 13
-36 14 -42z"/>
<path d="M4575 2225 c0 -78 3 -95 15 -95 12 0 14 11 12 49 -7 98 -2 100 57 22
29 -39 57 -71 62 -71 4 0 9 43 11 95 3 87 1 95 -16 95 -15 0 -16 -3 -7 -14 7
-9 11 -40 9 -78 l-3 -63 -48 62 c-52 68 -75 93 -85 93 -4 0 -7 -43 -7 -95z"/>
<path d="M4800 2298 c0 -15 3 -19 8 -11 4 7 19 14 32 15 24 3 25 1 28 -76 2
-57 -1 -82 -10 -87 -8 -6 0 -9 22 -9 22 0 30 3 22 9 -17 10 -13 163 5 168 6 2
21 -5 33 -17 l22 -22 -4 24 c-3 22 -8 23 -80 26 -76 3 -78 2 -78 -20z"/>
<path d="M5112 2308 c9 -7 28 -51 43 -96 15 -46 31 -80 35 -75 4 4 15 33 25
63 10 30 21 58 24 63 4 4 17 -25 30 -64 13 -39 26 -67 30 -63 5 5 18 38 31 74
12 36 29 75 37 88 13 21 12 22 -14 22 -18 0 -23 -3 -16 -8 10 -6 8 -24 -10
-77 l-24 -70 -23 70 c-12 39 -25 74 -28 79 -3 6 -18 -26 -32 -70 l-27 -79 -22
67 c-12 37 -20 72 -16 78 4 6 -7 10 -26 10 -28 0 -31 -2 -17 -12z"/>
<path d="M5438 2312 c10 -7 13 -32 10 -96 l-3 -87 65 3 c56 3 65 6 69 23 3 19
3 19 -16 3 -11 -10 -34 -18 -51 -18 -31 0 -32 2 -32 40 0 38 2 40 29 40 16 0
32 -6 34 -12 3 -7 5 1 5 17 0 17 -2 24 -5 18 -2 -7 -18 -13 -34 -13 -29 0 -30
2 -27 38 3 35 5 37 37 35 18 -1 38 -7 43 -15 7 -9 8 -8 6 7 -3 17 -12 20 -73
23 -42 1 -65 -1 -57 -6z"/>
<path d="M5748 2311 c10 -6 13 -31 10 -95 -3 -81 -2 -86 17 -86 18 0 20 5 17
45 l-4 45 52 0 52 0 -4 -45 c-3 -42 -2 -45 21 -45 20 0 22 3 13 12 -7 7 -12
41 -12 83 0 42 5 76 12 83 9 9 7 12 -13 12 -23 0 -24 -3 -21 -45 l4 -45 -52 0
-52 0 4 45 c3 44 3 45 -27 45 -20 0 -26 -3 -17 -9z"/>
<path d="M6076 2312 c-2 -4 -19 -43 -36 -87 -17 -44 -37 -83 -43 -87 -7 -4 1
-8 18 -8 17 0 25 4 19 8 -7 4 -8 15 -3 30 12 31 84 33 94 2 3 -11 3 -24 0 -30
-4 -6 7 -10 26 -10 28 0 30 2 17 13 -8 6 -30 49 -48 95 -33 84 -35 88 -44 74z
m20 -67 c19 -45 19 -45 -16 -45 -16 0 -30 4 -30 9 0 13 21 71 26 71 3 0 12
-16 20 -35z"/>
<path d="M6239 2288 c11 -18 29 -61 41 -95 13 -35 26 -63 30 -63 4 0 17 28 30
63 12 34 30 77 41 95 l18 32 -27 0 c-17 0 -22 -3 -15 -8 10 -6 7 -24 -13 -76
-15 -37 -29 -64 -32 -61 -4 3 -16 34 -29 68 -17 46 -19 63 -10 69 7 4 -1 8
-20 8 l-32 0 18 -32z"/>
<path d="M6468 2308 c17 -17 16 -165 0 -171 -7 -3 20 -6 60 -6 66 -1 72 1 72
20 0 19 -1 19 -16 5 -8 -9 -31 -16 -50 -16 -33 0 -34 1 -34 40 0 38 2 40 29
40 16 0 32 -6 34 -12 3 -7 5 1 5 17 0 17 -2 24 -5 18 -2 -7 -18 -13 -34 -13
-29 0 -30 2 -27 37 4 44 22 52 68 30 28 -15 29 -15 20 4 -9 16 -22 19 -72 19
-48 0 -59 -3 -50 -12z"/>
<path d="M6778 2308 c17 -17 16 -165 0 -171 -7 -3 3 -6 22 -6 23 0 30 2 22 8
-10 6 -13 31 -10 95 3 86 3 86 -21 86 -20 0 -22 -3 -13 -12z"/>
<path d="M6880 2300 c0 -19 1 -20 25 -4 13 8 29 13 35 9 15 -9 13 -162 -2
-168 -7 -3 3 -5 22 -5 19 0 29 2 23 5 -16 6 -18 159 -3 168 6 4 22 -1 36 -10
24 -16 26 -16 22 2 -3 15 -15 18 -81 21 -72 3 -77 2 -77 -18z"/>
<path d="M7110 2259 c0 -37 4 -58 10 -54 6 3 10 31 10 61 0 30 -4 54 -10 54
-6 0 -10 -27 -10 -61z"/>
<path d="M7105 2151 c-7 -12 12 -24 25 -16 11 7 4 25 -10 25 -5 0 -11 -4 -15
-9z"/>
</g>
</svg>
